<svg width="103" height="16" viewBox="0 0 103 16" fill="none" xmlns="http://www.w3.org/2000/svg">
<path d="M6.4743 15.2C5.24763 15.2 4.18096 14.9667 3.2743 14.5C2.38096 14.0333 1.6143 13.3533 0.974297 12.46L2.6543 10.54C3.30763 11.46 3.94096 12.0933 4.5543 12.44C5.18096 12.7733 5.88763 12.94 6.6743 12.94C7.12763 12.94 7.54096 12.8733 7.9143 12.74C8.28763 12.6067 8.58096 12.42 8.7943 12.18C9.00763 11.9267 9.1143 11.6333 9.1143 11.3C9.1143 11.0733 9.06763 10.8667 8.9743 10.68C8.8943 10.48 8.76763 10.3067 8.5943 10.16C8.4343 10 8.22763 9.85333 7.9743 9.72C7.7343 9.58667 7.44763 9.47333 7.1143 9.38C6.7943 9.27333 6.44096 9.18667 6.0543 9.12C5.30763 8.97333 4.66096 8.78 4.1143 8.54C3.58096 8.28667 3.12763 7.98 2.7543 7.62C2.3943 7.24667 2.12096 6.83333 1.9343 6.38C1.76096 5.91333 1.6743 5.38667 1.6743 4.8C1.6743 4.01333 1.8943 3.32 2.3343 2.72C2.78763 2.10667 3.38763 1.62667 4.1343 1.28C4.8943 0.933333 5.72763 0.76 6.6343 0.76C7.80763 0.76 8.80096 0.973333 9.6143 1.4C10.441 1.82667 11.0876 2.43333 11.5543 3.22L9.8343 4.9C9.4343 4.28667 8.96096 3.82 8.4143 3.5C7.86763 3.18 7.2743 3.02 6.6343 3.02C6.1543 3.02 5.7343 3.09333 5.3743 3.24C5.02763 3.37333 4.7543 3.56667 4.5543 3.82C4.3543 4.06 4.2543 4.35333 4.2543 4.7C4.2543 4.95333 4.30763 5.18667 4.4143 5.4C4.5343 5.61333 4.70763 5.8 4.9343 5.96C5.16096 6.12 5.44763 6.26 5.7943 6.38C6.14096 6.5 6.54096 6.60667 6.9943 6.7C7.72763 6.86 8.38096 7.06 8.9543 7.3C9.54096 7.54 10.0343 7.83333 10.4343 8.18C10.8476 8.51333 11.161 8.9 11.3743 9.34C11.5876 9.76667 11.6943 10.2467 11.6943 10.78C11.6943 11.6867 11.481 12.4733 11.0543 13.14C10.6276 13.8067 10.021 14.32 9.2343 14.68C8.44763 15.0267 7.52763 15.2 6.4743 15.2ZM20.1729 15V8.26C20.1729 7.68667 19.9796 7.24 19.5929 6.92C19.2196 6.58667 18.7329 6.42 18.1329 6.42C17.5729 6.42 17.0662 6.53333 16.6129 6.76C16.1596 6.97333 15.7396 7.32 15.3529 7.8L13.8329 6.28C14.4596 5.61333 15.1529 5.10667 15.9129 4.76C16.6729 4.41333 17.4929 4.24 18.3729 4.24C19.2129 4.24 19.9329 4.37333 20.5329 4.64C21.1462 4.90667 21.6196 5.30667 21.9529 5.84C22.2862 6.36 22.4529 7 22.4529 7.76V15H20.1729ZM17.1729 15.2C16.4929 15.2 15.8862 15.0667 15.3529 14.8C14.8196 14.5333 14.3929 14.1667 14.0729 13.7C13.7662 13.22 13.6129 12.66 13.6129 12.02C13.6129 11.46 13.7129 10.9733 13.9129 10.56C14.1129 10.1333 14.4062 9.78 14.7929 9.5C15.1929 9.22 15.6862 9.01333 16.2729 8.88C16.8729 8.73333 17.5596 8.66 18.3329 8.66H21.3529L21.1729 10.42H18.1929C17.8329 10.42 17.5129 10.4533 17.2329 10.52C16.9529 10.5867 16.7129 10.6867 16.5129 10.82C16.3129 10.9533 16.1662 11.1133 16.0729 11.3C15.9796 11.4733 15.9329 11.6867 15.9329 11.94C15.9329 12.2067 15.9996 12.44 16.1329 12.64C16.2662 12.8267 16.4462 12.9733 16.6729 13.08C16.8996 13.1867 17.1662 13.24 17.4729 13.24C17.9129 13.24 18.3262 13.1667 18.7129 13.02C19.1129 12.8733 19.4662 12.6667 19.7729 12.4C20.0796 12.1333 20.3196 11.8333 20.4929 11.5L20.9929 12.86C20.7129 13.3267 20.3662 13.7333 19.9529 14.08C19.5529 14.4267 19.1129 14.7 18.6329 14.9C18.1662 15.1 17.6796 15.2 17.1729 15.2ZM25.0713 15V0.2H27.5113V15H25.0713ZM36.2471 15V8.26C36.2471 7.68667 36.0538 7.24 35.6671 6.92C35.2938 6.58667 34.8071 6.42 34.2071 6.42C33.6471 6.42 33.1404 6.53333 32.6871 6.76C32.2338 6.97333 31.8138 7.32 31.4271 7.8L29.9071 6.28C30.5338 5.61333 31.2271 5.10667 31.9871 4.76C32.7471 4.41333 33.5671 4.24 34.4471 4.24C35.2871 4.24 36.0071 4.37333 36.6071 4.64C37.2204 4.90667 37.6938 5.30667 38.0271 5.84C38.3604 6.36 38.5271 7 38.5271 7.76V15H36.2471ZM33.2471 15.2C32.5671 15.2 31.9604 15.0667 31.4271 14.8C30.8938 14.5333 30.4671 14.1667 30.1471 13.7C29.8404 13.22 29.6871 12.66 29.6871 12.02C29.6871 11.46 29.7871 10.9733 29.9871 10.56C30.1871 10.1333 30.4804 9.78 30.8671 9.5C31.2671 9.22 31.7604 9.01333 32.3471 8.88C32.9471 8.73333 33.6338 8.66 34.4071 8.66H37.4271L37.2471 10.42H34.2671C33.9071 10.42 33.5871 10.4533 33.3071 10.52C33.0271 10.5867 32.7871 10.6867 32.5871 10.82C32.3871 10.9533 32.2404 11.1133 32.1471 11.3C32.0538 11.4733 32.0071 11.6867 32.0071 11.94C32.0071 12.2067 32.0738 12.44 32.2071 12.64C32.3404 12.8267 32.5204 12.9733 32.7471 13.08C32.9738 13.1867 33.2404 13.24 33.5471 13.24C33.9871 13.24 34.4004 13.1667 34.7871 13.02C35.1871 12.8733 35.5404 12.6667 35.8471 12.4C36.1538 12.1333 36.3938 11.8333 36.5671 11.5L37.0671 12.86C36.7871 13.3267 36.4404 13.7333 36.0271 14.08C35.6271 14.4267 35.1871 14.7 34.7071 14.9C34.2404 15.1 33.7538 15.2 33.2471 15.2ZM45.3855 15.2C44.4389 15.2 43.5922 14.9667 42.8455 14.5C42.1122 14.02 41.5255 13.3733 41.0855 12.56C40.6589 11.7333 40.4455 10.7867 40.4455 9.72C40.4455 8.66667 40.6589 7.72667 41.0855 6.9C41.5122 6.07333 42.0922 5.42667 42.8255 4.96C43.5722 4.48 44.4122 4.24 45.3455 4.24C45.8522 4.24 46.3389 4.32 46.8055 4.48C47.2855 4.64 47.7122 4.86 48.0855 5.14C48.4722 5.40667 48.7722 5.70667 48.9855 6.04C49.2122 6.37333 49.3322 6.72 49.3455 7.08L48.6855 7.16V0.2H51.1455V15H48.7655L48.7055 12.54L49.1855 12.58C49.1722 12.9 49.0589 13.2133 48.8455 13.52C48.6322 13.8267 48.3455 14.1067 47.9855 14.36C47.6389 14.6133 47.2389 14.82 46.7855 14.98C46.3322 15.1267 45.8655 15.2 45.3855 15.2ZM45.8455 13.12C46.4189 13.12 46.9255 12.98 47.3655 12.7C47.8055 12.4067 48.1455 12.0067 48.3855 11.5C48.6389 10.98 48.7655 10.3867 48.7655 9.72C48.7655 9.05333 48.6389 8.46667 48.3855 7.96C48.1455 7.45333 47.8055 7.05333 47.3655 6.76C46.9255 6.46667 46.4189 6.32 45.8455 6.32C45.2589 6.32 44.7455 6.46667 44.3055 6.76C43.8789 7.05333 43.5389 7.45333 43.2855 7.96C43.0322 8.46667 42.9055 9.05333 42.9055 9.72C42.9055 10.3867 43.0322 10.98 43.2855 11.5C43.5389 12.0067 43.8789 12.4067 44.3055 12.7C44.7455 12.98 45.2589 13.12 45.8455 13.12ZM63.0374 15V3.4H59.0374V0.999999H69.7174V3.4H65.6174V15H63.0374ZM75.8565 15V8.26C75.8565 7.68667 75.6632 7.24 75.2765 6.92C74.9032 6.58667 74.4165 6.42 73.8165 6.42C73.2565 6.42 72.7498 6.53333 72.2965 6.76C71.8432 6.97333 71.4232 7.32 71.0365 7.8L69.5165 6.28C70.1432 5.61333 70.8365 5.10667 71.5965 4.76C72.3565 4.41333 73.1765 4.24 74.0565 4.24C74.8965 4.24 75.6165 4.37333 76.2165 4.64C76.8298 4.90667 77.3032 5.30667 77.6365 5.84C77.9698 6.36 78.1365 7 78.1365 7.76V15H75.8565ZM72.8565 15.2C72.1765 15.2 71.5698 15.0667 71.0365 14.8C70.5032 14.5333 70.0765 14.1667 69.7565 13.7C69.4498 13.22 69.2965 12.66 69.2965 12.02C69.2965 11.46 69.3965 10.9733 69.5965 10.56C69.7965 10.1333 70.0898 9.78 70.4765 9.5C70.8765 9.22 71.3698 9.01333 71.9565 8.88C72.5565 8.73333 73.2432 8.66 74.0165 8.66H77.0365L76.8565 10.42H73.8765C73.5165 10.42 73.1965 10.4533 72.9165 10.52C72.6365 10.5867 72.3965 10.6867 72.1965 10.82C71.9965 10.9533 71.8498 11.1133 71.7565 11.3C71.6632 11.4733 71.6165 11.6867 71.6165 11.94C71.6165 12.2067 71.6832 12.44 71.8165 12.64C71.9498 12.8267 72.1298 12.9733 72.3565 13.08C72.5832 13.1867 72.8498 13.24 73.1565 13.24C73.5965 13.24 74.0098 13.1667 74.3965 13.02C74.7965 12.8733 75.1498 12.6667 75.4565 12.4C75.7632 12.1333 76.0032 11.8333 76.1765 11.5L76.6765 12.86C76.3965 13.3267 76.0498 13.7333 75.6365 14.08C75.2365 14.4267 74.7965 14.7 74.3165 14.9C73.8498 15.1 73.3632 15.2 72.8565 15.2ZM80.7349 15V0.2H83.1549V6.62L82.6949 6.86C82.8416 6.39333 83.1016 5.96667 83.4749 5.58C83.8616 5.18 84.3216 4.86 84.8549 4.62C85.3883 4.36667 85.9416 4.24 86.5149 4.24C87.3149 4.24 87.9816 4.4 88.5149 4.72C89.0616 5.04 89.4683 5.52 89.7349 6.16C90.0016 6.8 90.1349 7.6 90.1349 8.56V15H87.6949V8.74C87.6949 8.19333 87.6216 7.74667 87.4749 7.4C87.3283 7.04 87.1016 6.78 86.7949 6.62C86.4883 6.44667 86.1149 6.37333 85.6749 6.4C85.3149 6.4 84.9816 6.46 84.6749 6.58C84.3683 6.68667 84.1016 6.84667 83.8749 7.06C83.6616 7.26 83.4883 7.5 83.3549 7.78C83.2349 8.04667 83.1749 8.34 83.1749 8.66V15H81.9549C81.7283 15 81.5083 15 81.2949 15C81.0949 15 80.9083 15 80.7349 15ZM96.5824 15.2C95.8224 15.2 95.1624 15.0267 94.6024 14.68C94.0558 14.3333 93.6291 13.8467 93.3224 13.22C93.0291 12.5933 92.8824 11.84 92.8824 10.96V4.46H95.3224V10.44C95.3224 11.2667 95.5158 11.92 95.9024 12.4C96.3024 12.88 96.8558 13.12 97.5624 13.12C97.9091 13.12 98.2224 13.0667 98.5024 12.96C98.7958 12.84 99.0491 12.68 99.2624 12.48C99.4758 12.2667 99.6424 12.0133 99.7624 11.72C99.8824 11.4267 99.9424 11.1133 99.9424 10.78V4.46H102.382V15H100.002L99.9624 12.8L100.402 12.56C100.242 13.0533 99.9691 13.5 99.5824 13.9C99.2091 14.3 98.7624 14.62 98.2424 14.86C97.7224 15.0867 97.1691 15.2 96.5824 15.2Z" fill="#1D1D1D"/>
</svg>
