<svg width="94" height="21" viewBox="0 0 94 21" fill="none" xmlns="http://www.w3.org/2000/svg">
<path d="M6.48602 16.2C5.25935 16.2 4.19268 15.9667 3.28602 15.5C2.39268 15.0333 1.62602 14.3533 0.986016 13.46L2.66602 11.54C3.31935 12.46 3.95268 13.0933 4.56602 13.44C5.19268 13.7733 5.89935 13.94 6.68602 13.94C7.13935 13.94 7.55268 13.8733 7.92602 13.74C8.29935 13.6067 8.59268 13.42 8.80602 13.18C9.01935 12.9267 9.12602 12.6333 9.12602 12.3C9.12602 12.0733 9.07935 11.8667 8.98602 11.68C8.90602 11.48 8.77935 11.3067 8.60602 11.16C8.44602 11 8.23935 10.8533 7.98602 10.72C7.74602 10.5867 7.45935 10.4733 7.12602 10.38C6.80602 10.2733 6.45268 10.1867 6.06602 10.12C5.31935 9.97333 4.67268 9.78 4.12602 9.54C3.59268 9.28667 3.13935 8.98 2.76602 8.62C2.40602 8.24667 2.13268 7.83333 1.94602 7.38C1.77268 6.91333 1.68602 6.38667 1.68602 5.8C1.68602 5.01333 1.90602 4.32 2.34602 3.72C2.79935 3.10667 3.39935 2.62667 4.14602 2.28C4.90602 1.93333 5.73935 1.76 6.64602 1.76C7.81935 1.76 8.81268 1.97333 9.62602 2.4C10.4527 2.82667 11.0993 3.43333 11.566 4.22L9.84602 5.9C9.44602 5.28667 8.97268 4.82 8.42602 4.5C7.87935 4.18 7.28602 4.02 6.64602 4.02C6.16602 4.02 5.74602 4.09333 5.38602 4.24C5.03935 4.37333 4.76602 4.56667 4.56602 4.82C4.36602 5.06 4.26602 5.35333 4.26602 5.7C4.26602 5.95333 4.31935 6.18667 4.42602 6.4C4.54602 6.61333 4.71935 6.8 4.94602 6.96C5.17268 7.12 5.45935 7.26 5.80602 7.38C6.15268 7.5 6.55268 7.60667 7.00602 7.7C7.73935 7.86 8.39268 8.06 8.96602 8.3C9.55268 8.54 10.046 8.83333 10.446 9.18C10.8593 9.51333 11.1727 9.9 11.386 10.34C11.5993 10.7667 11.706 11.2467 11.706 11.78C11.706 12.6867 11.4927 13.4733 11.066 14.14C10.6393 14.8067 10.0327 15.32 9.24602 15.68C8.45935 16.0267 7.53935 16.2 6.48602 16.2ZM14.1646 20.4V5.46H16.5646L16.6046 7.84L16.1846 7.66C16.2646 7.24667 16.4913 6.86 16.8646 6.5C17.2379 6.14 17.6913 5.84667 18.2246 5.62C18.7713 5.39333 19.3379 5.28 19.9246 5.28C20.8579 5.28 21.6846 5.51333 22.4046 5.98C23.1379 6.44667 23.7113 7.09333 24.1246 7.92C24.5513 8.73333 24.7646 9.66667 24.7646 10.72C24.7646 11.7733 24.5579 12.7133 24.1446 13.54C23.7313 14.3533 23.1579 15 22.4246 15.48C21.7046 15.9467 20.8846 16.18 19.9646 16.18C19.3513 16.18 18.7579 16.06 18.1846 15.82C17.6246 15.58 17.1513 15.2667 16.7646 14.88C16.3779 14.4933 16.1313 14.0933 16.0246 13.68L16.6246 13.38V20.4H14.1646ZM19.4846 14C20.0446 14 20.5446 13.86 20.9846 13.58C21.4246 13.3 21.7713 12.9133 22.0246 12.42C22.2779 11.9267 22.4046 11.36 22.4046 10.72C22.4046 10.08 22.2779 9.52 22.0246 9.04C21.7846 8.54667 21.4446 8.16 21.0046 7.88C20.5646 7.58667 20.0579 7.44 19.4846 7.44C18.8979 7.44 18.3846 7.58 17.9446 7.86C17.5046 8.14 17.1579 8.52667 16.9046 9.02C16.6513 9.51333 16.5246 10.08 16.5246 10.72C16.5246 11.36 16.6513 11.9267 16.9046 12.42C17.1579 12.9133 17.5046 13.3 17.9446 13.58C18.3846 13.86 18.8979 14 19.4846 14ZM32.9776 16V9.26C32.9776 8.68667 32.7842 8.24 32.3976 7.92C32.0242 7.58667 31.5376 7.42 30.9376 7.42C30.3776 7.42 29.8709 7.53333 29.4176 7.76C28.9642 7.97333 28.5442 8.32 28.1576 8.8L26.6376 7.28C27.2642 6.61333 27.9576 6.10667 28.7176 5.76C29.4776 5.41333 30.2976 5.24 31.1776 5.24C32.0176 5.24 32.7376 5.37333 33.3376 5.64C33.9509 5.90667 34.4242 6.30667 34.7576 6.84C35.0909 7.36 35.2576 8 35.2576 8.76V16H32.9776ZM29.9776 16.2C29.2976 16.2 28.6909 16.0667 28.1576 15.8C27.6242 15.5333 27.1976 15.1667 26.8776 14.7C26.5709 14.22 26.4176 13.66 26.4176 13.02C26.4176 12.46 26.5176 11.9733 26.7176 11.56C26.9176 11.1333 27.2109 10.78 27.5976 10.5C27.9976 10.22 28.4909 10.0133 29.0776 9.88C29.6776 9.73333 30.3642 9.66 31.1376 9.66H34.1576L33.9776 11.42H30.9976C30.6376 11.42 30.3176 11.4533 30.0376 11.52C29.7576 11.5867 29.5176 11.6867 29.3176 11.82C29.1176 11.9533 28.9709 12.1133 28.8776 12.3C28.7842 12.4733 28.7376 12.6867 28.7376 12.94C28.7376 13.2067 28.8042 13.44 28.9376 13.64C29.0709 13.8267 29.2509 13.9733 29.4776 14.08C29.7042 14.1867 29.9709 14.24 30.2776 14.24C30.7176 14.24 31.1309 14.1667 31.5176 14.02C31.9176 13.8733 32.2709 13.6667 32.5776 13.4C32.8842 13.1333 33.1242 12.8333 33.2976 12.5L33.7976 13.86C33.5176 14.3267 33.1709 14.7333 32.7576 15.08C32.3576 15.4267 31.9176 15.7 31.4376 15.9C30.9709 16.1 30.4842 16.2 29.9776 16.2ZM42.596 20.6C41.8227 20.6 41.0427 20.48 40.256 20.24C39.4827 20 38.856 19.6933 38.376 19.32L39.256 17.48C39.656 17.7867 40.1427 18.0267 40.716 18.2C41.3027 18.3867 41.8893 18.48 42.476 18.48C43.1827 18.48 43.7693 18.3667 44.236 18.14C44.716 17.9133 45.076 17.5733 45.316 17.12C45.556 16.68 45.676 16.1333 45.676 15.48V13.54L46.016 13.68C45.9493 14.0933 45.7293 14.4867 45.356 14.86C44.996 15.2333 44.5427 15.5333 43.996 15.76C43.4493 15.9867 42.8893 16.1 42.316 16.1C41.3293 16.1 40.4493 15.8733 39.676 15.42C38.9027 14.9533 38.2893 14.3133 37.836 13.5C37.396 12.6867 37.176 11.7533 37.176 10.7C37.176 9.64667 37.396 8.71333 37.836 7.9C38.276 7.07333 38.8827 6.42667 39.656 5.96C40.4293 5.48 41.296 5.24 42.256 5.24C42.6427 5.24 43.0227 5.28667 43.396 5.38C43.7693 5.47333 44.116 5.60667 44.436 5.78C44.756 5.95333 45.036 6.14667 45.276 6.36C45.5293 6.57333 45.736 6.8 45.896 7.04C46.056 7.28 46.156 7.50667 46.196 7.72L45.696 7.9L45.736 5.46H48.116V15.28C48.116 16.1333 47.9893 16.8867 47.736 17.54C47.496 18.1933 47.136 18.7467 46.656 19.2C46.176 19.6533 45.596 20 44.916 20.24C44.236 20.48 43.4627 20.6 42.596 20.6ZM42.676 14C43.2893 14 43.8293 13.86 44.296 13.58C44.7627 13.3 45.1227 12.9133 45.376 12.42C45.6293 11.9267 45.756 11.36 45.756 10.72C45.756 10.0667 45.6227 9.49333 45.356 9C45.1027 8.49333 44.7427 8.1 44.276 7.82C43.8227 7.54 43.2893 7.4 42.676 7.4C42.0893 7.4 41.5627 7.54667 41.096 7.84C40.6427 8.12 40.2827 8.51333 40.016 9.02C39.7627 9.51333 39.636 10.08 39.636 10.72C39.636 11.36 39.7627 11.9267 40.016 12.42C40.2827 12.9133 40.6427 13.3 41.096 13.58C41.5627 13.86 42.0893 14 42.676 14ZM50.981 16V1.2H53.401V7.62L52.941 7.86C53.0877 7.39333 53.3477 6.96667 53.721 6.58C54.1077 6.18 54.5677 5.86 55.101 5.62C55.6343 5.36667 56.1877 5.24 56.761 5.24C57.561 5.24 58.2277 5.4 58.761 5.72C59.3077 6.04 59.7143 6.52 59.981 7.16C60.2477 7.8 60.381 8.6 60.381 9.56V16H57.941V9.74C57.941 9.19333 57.8677 8.74667 57.721 8.4C57.5743 8.04 57.3477 7.78 57.041 7.62C56.7343 7.44667 56.361 7.37333 55.921 7.4C55.561 7.4 55.2277 7.46 54.921 7.58C54.6143 7.68667 54.3477 7.84667 54.121 8.06C53.9077 8.26 53.7343 8.5 53.601 8.78C53.481 9.04667 53.421 9.34 53.421 9.66V16H52.201C51.9743 16 51.7543 16 51.541 16C51.341 16 51.1543 16 50.981 16ZM68.1085 16.2C67.0018 16.2 66.0218 15.9733 65.1685 15.52C64.3285 15.0533 63.6685 14.42 63.1885 13.62C62.7218 12.8067 62.4885 11.8733 62.4885 10.82C62.4885 9.99333 62.6218 9.24 62.8885 8.56C63.1552 7.88 63.5285 7.29333 64.0085 6.8C64.4885 6.29333 65.0552 5.90667 65.7085 5.64C66.3752 5.36 67.0952 5.22 67.8685 5.22C68.5752 5.22 69.2218 5.35333 69.8085 5.62C70.4085 5.88667 70.9285 6.25333 71.3685 6.72C71.8085 7.17333 72.1418 7.72 72.3685 8.36C72.6085 8.98667 72.7218 9.67333 72.7085 10.42L72.6885 11.3H64.1685L63.6885 9.6H70.6285L70.3285 9.94V9.48C70.2885 9.08 70.1552 8.72667 69.9285 8.42C69.7018 8.1 69.4085 7.85333 69.0485 7.68C68.7018 7.49333 68.3152 7.4 67.8885 7.4C67.2352 7.4 66.6818 7.52667 66.2285 7.78C65.7752 8.02 65.4285 8.38 65.1885 8.86C64.9618 9.34 64.8485 9.93333 64.8485 10.64C64.8485 11.32 64.9885 11.9133 65.2685 12.42C65.5618 12.9267 65.9752 13.32 66.5085 13.6C67.0418 13.88 67.6618 14.02 68.3685 14.02C68.8618 14.02 69.3152 13.94 69.7285 13.78C70.1552 13.62 70.6085 13.3333 71.0885 12.92L72.2885 14.6C71.9285 14.9333 71.5152 15.22 71.0485 15.46C70.5952 15.6867 70.1152 15.8667 69.6085 16C69.1018 16.1333 68.6018 16.2 68.1085 16.2ZM76.0473 16V2.78H78.4873V16H76.0473ZM73.9673 7.74V5.46H80.7873V7.74H73.9673ZM83.8207 16V2.78H86.2607V16H83.8207ZM81.7407 7.74V5.46H88.5607V7.74H81.7407ZM90.7141 16V5.46H93.1541V16H90.7141ZM91.9141 3.22C91.4208 3.22 91.0341 3.1 90.7541 2.86C90.4875 2.60667 90.3541 2.25333 90.3541 1.8C90.3541 1.37333 90.4941 1.03333 90.7741 0.779999C91.0541 0.513333 91.4341 0.38 91.9141 0.38C92.4075 0.38 92.7875 0.506666 93.0541 0.76C93.3341 1 93.4741 1.34667 93.4741 1.8C93.4741 2.21333 93.3341 2.55333 93.0541 2.82C92.7741 3.08667 92.3941 3.22 91.9141 3.22Z" fill="#1D1D1D"/>
</svg>
